# xmcd
#
# Track frame offsets: 
#        150
#        13523
#        34338
#        51949
#        63506
#        79649
#        101860
#        120735
#        137747
#        151154
#
# Disc length: 2387 seconds
#
# Revision: 0
# Processed by: cddbd v1.5.2PL0 Copyright (c) Steve Scherf et al.
# Submitted via: ExactAudioCopy v0.99pb4
#
DISCID=8109510a
DTITLE=Exile - The Best of Exile
DYEAR=1985
DGENRE=Corporate Country
TTITLE0=Stay With Me
TTITLE1=Take Me Down
TTITLE2=You Thrill Me
TTITLE3=Dixie Girl
TTITLE4=One More Night for Love
TTITLE5=Kiss You All Over
TTITLE6=The Closer You Get
TTITLE7=Smooth Sailin' (Rock In the Road)
TTITLE8=Someone Like You
TTITLE9=Heart and Soul
EXTD=
EXTT0=
EXTT1=
EXTT2=
EXTT3=
EXTT4=
EXTT5=
EXTT6=
EXTT7=
EXTT8=
EXTT9=
PLAYORDER=
